# Blender v3.1.2 OBJ File: 'Casa2.blend'
# www.blender.org
o Casa_Cortina_Cilindro.014
v 3.967065 1.929502 -2.674919
v 3.967065 -0.018864 -2.674919
v 3.955614 1.929502 -2.657012
v 3.955614 -0.018864 -2.657012
v 3.948190 1.929502 -2.646388
v 3.948190 -0.018864 -2.646388
v 3.942674 1.929502 -2.634267
v 3.942674 -0.018864 -2.634267
v 3.937471 1.929502 -2.621115
v 3.937471 -0.018864 -2.621115
v 3.936289 1.929502 -2.607438
v 3.936289 -0.018864 -2.607438
v 3.937471 1.929502 -2.593761
v 3.937471 -0.018864 -2.593761
v 3.942674 1.929502 -2.580609
v 3.942674 -0.018864 -2.580609
v 3.948190 1.929502 -2.568488
v 3.948190 -0.018864 -2.568488
v 3.955614 1.929502 -2.557864
v 3.955614 -0.018864 -2.557864
v 3.967142 1.929502 -2.540605
v 3.967142 -0.018864 -2.540605
v 3.976894 1.929502 -2.691176
v 3.976894 -0.018864 -2.691176
v 3.982411 1.929502 -2.703297
v 3.982411 -0.018864 -2.703297
v 3.987614 1.929502 -2.716448
v 3.987614 -0.018864 -2.716448
v 3.988796 1.929502 -2.730126
v 3.988796 -0.018864 -2.730126
v 3.987614 1.929502 -2.743803
v 3.987614 -0.018864 -2.743803
v 3.982411 1.929502 -2.756955
v 3.982411 -0.018864 -2.756955
v 3.976894 1.929502 -2.769075
v 3.976894 -0.018864 -2.769075
v 3.967065 1.929502 -2.784558
v 3.967065 -0.018864 -2.784558
v 3.960425 1.929502 -2.791974
v 3.960425 -0.018864 -2.791974
v 3.958096 1.929502 -2.419145
v 3.958096 -0.018864 -2.419145
v 3.967142 1.929502 -2.431419
v 3.969624 -0.018864 -2.436473
v 3.977047 1.929502 -2.447097
v 3.977047 -0.018864 -2.447097
v 3.982564 1.929502 -2.459217
v 3.982564 -0.018864 -2.459217
v 3.987767 1.929502 -2.472369
v 3.987767 -0.018864 -2.472369
v 3.988949 1.929502 -2.486046
v 3.988949 -0.018864 -2.486046
v 3.987767 1.929502 -2.499724
v 3.987767 -0.018864 -2.499724
v 3.982564 1.929502 -2.512875
v 3.982564 -0.018864 -2.512875
v 3.977047 1.929502 -2.524996
v 3.977047 -0.018864 -2.524996
v 3.960578 1.929502 -2.547895
v 3.960578 -0.018864 -2.547895
v 3.967065 1.929502 -2.918747
v 3.967065 -0.018864 -2.918747
v 3.976894 1.929502 -2.935004
v 3.976894 -0.018864 -2.935004
v 3.982411 1.929502 -2.947124
v 3.982411 -0.018864 -2.947124
v 3.987614 1.929502 -2.960276
v 3.987614 -0.018864 -2.960276
v 3.988796 1.929502 -2.973953
v 3.988796 -0.018864 -2.973953
v 3.987614 1.929502 -2.987631
v 3.987614 -0.018864 -2.987631
v 3.982411 1.929502 -3.000782
v 3.982411 -0.018864 -3.000782
v 3.976894 1.929502 -3.012903
v 3.976894 -0.018864 -3.012903
v 3.967065 1.929502 -3.027252
v 3.967450 -0.018864 -3.027252
v 3.960425 1.929502 -3.035802
v 3.960425 -0.018864 -3.035802
v 3.955614 1.929502 -2.900839
v 3.955614 -0.018864 -2.900839
v 3.948190 1.929502 -2.890215
v 3.948190 -0.018864 -2.890215
v 3.942674 1.929502 -2.878095
v 3.942674 -0.018864 -2.878095
v 3.937471 1.929502 -2.864943
v 3.937471 -0.018864 -2.864943
v 3.936289 1.929502 -2.851266
v 3.936289 -0.018864 -2.851266
v 3.937471 1.929502 -2.837588
v 3.937471 -0.018864 -2.837588
v 3.942674 1.929502 -2.824437
v 3.942674 -0.018864 -2.824437
v 3.948190 1.929502 -2.812316
v 3.948190 -0.018864 -2.812316
v 3.955614 1.929502 -2.801692
v 3.955614 -0.018864 -2.801692
v 4.009469 -0.018864 -3.172570
v 3.997823 1.929502 -3.174132
v 3.997823 -0.018864 -3.174132
v 3.986178 1.929502 -3.172569
v 3.986178 -0.018864 -3.172570
v 3.974980 1.929502 -3.164654
v 3.974980 -0.018864 -3.164654
v 3.964660 1.929502 -3.154674
v 3.964660 -0.018864 -3.154674
v 3.955614 1.929502 -3.142399
v 3.955614 -0.018864 -3.142399
v 3.948190 1.929502 -3.131775
v 3.948190 -0.018864 -3.131775
v 3.942674 1.929502 -3.119654
v 3.942674 -0.018864 -3.119654
v 3.937471 1.929502 -3.106503
v 3.937471 -0.018864 -3.106503
v 3.936289 1.929502 -3.092825
v 3.936289 -0.018864 -3.092825
v 3.937471 1.929502 -3.079148
v 3.937471 -0.018864 -3.079148
v 3.942674 1.929502 -3.065996
v 3.942674 -0.018864 -3.065996
v 3.948190 1.929502 -3.053875
v 3.948190 -0.018864 -3.053875
v 3.955614 1.929502 -3.043252
v 3.955614 -0.018864 -3.043252
v 3.958096 1.929502 -2.176547
v 3.958096 -0.018864 -2.176547
v 3.971475 1.929502 -2.193812
v 3.969624 -0.018864 -2.194537
v 3.977047 1.929502 -2.205161
v 3.977047 -0.018864 -2.205161
v 3.982564 1.929502 -2.217281
v 3.982564 -0.018864 -2.217281
v 3.987767 1.929502 -2.230433
v 3.987767 -0.018864 -2.230433
v 3.988949 1.929502 -2.244110
v 3.988949 -0.018864 -2.244110
v 3.987767 1.929502 -2.257788
v 3.987767 -0.018864 -2.257788
v 3.982564 1.929502 -2.270939
v 3.982564 -0.018864 -2.270939
v 3.977047 1.929502 -2.283060
v 3.977047 -0.018864 -2.283060
v 3.967142 1.929502 -2.298177
v 3.967142 -0.018864 -2.298177
v 3.960578 1.929502 -2.305959
v 3.948190 1.929502 -2.403467
v 3.948190 -0.018864 -2.403467
v 3.942674 1.929502 -2.391347
v 3.942674 -0.018864 -2.391347
v 3.937471 1.929502 -2.378195
v 3.937471 -0.018864 -2.378195
v 3.936289 1.929502 -2.364518
v 3.936289 -0.018864 -2.364518
v 3.937471 1.929502 -2.350840
v 3.937471 -0.018864 -2.350840
v 3.942674 1.929502 -2.337689
v 3.942674 -0.018864 -2.337689
v 3.948190 1.929502 -2.325568
v 3.948190 -0.018864 -2.325568
v 3.955614 1.929502 -2.314944
v 3.955614 -0.018864 -2.314944
v 3.997823 1.929502 -2.039951
v 3.997823 -0.018864 -2.039951
v 4.009469 1.929502 -2.041513
v 4.009469 -0.018864 -2.041513
v 3.948190 1.929502 -2.160207
v 3.948190 -0.018864 -2.160207
v 3.942674 1.929502 -2.148086
v 3.942674 -0.018864 -2.148087
v 3.937471 1.929502 -2.134935
v 3.937471 -0.018864 -2.134935
v 3.936289 1.929502 -2.121257
v 3.936289 -0.018864 -2.121257
v 3.937471 1.929502 -2.107580
v 3.937471 -0.018864 -2.107580
v 3.942674 1.929502 -2.094428
v 3.942674 -0.018864 -2.094428
v 3.948190 1.929502 -2.082308
v 3.948190 -0.018864 -2.082308
v 3.955614 1.929502 -2.071684
v 3.955614 -0.018864 -2.071684
v 3.964660 1.929502 -2.059409
v 3.964660 -0.018864 -2.059409
v 3.974980 1.929502 -2.049428
v 3.974980 -0.018864 -2.049428
v 3.986178 1.929502 -2.041513
v 3.986178 -0.018864 -2.041513
vt 0.415942 0.999998
vt 0.397607 0.000000
vt 0.415942 0.000000
vt 0.397607 0.999998
vt 0.386548 0.000000
vt 0.386548 0.999998
vt 0.374780 0.000000
vt 0.374780 0.999998
vt 0.362236 0.000000
vt 0.362236 0.999998
vt 0.350406 0.000000
vt 0.350406 0.999998
vt 0.339256 0.000000
vt 0.339257 0.999998
vt 0.329704 0.000000
vt 0.329704 0.999998
vt 0.321107 0.000000
vt 0.957216 0.999998
vt 0.948856 0.000000
vt 0.957216 0.000000
vt 0.948855 0.999998
vt 0.935736 0.000000
vt 0.600858 0.999998
vt 0.584193 0.000000
vt 0.600859 0.000000
vt 0.584193 0.999998
vt 0.572378 0.000000
vt 0.559821 0.999998
vt 0.559821 0.000000
vt 0.548186 0.000000
vt 0.548185 0.999998
vt 0.537346 0.000000
vt 0.537346 0.999999
vt 0.528292 0.000001
vt 0.528292 0.999999
vt 0.520190 0.000001
vt 0.520190 0.999999
vt 0.510777 0.000002
vt 0.218269 0.000002
vt 0.231399 1.000000
vt 0.218269 1.000000
vt 0.236386 0.000002
vt 0.247614 1.000000
vt 0.247614 0.000002
vt 0.259429 1.000000
vt 0.271986 0.000002
vt 0.271986 1.000000
vt 0.283621 1.000000
vt 0.283621 0.000002
vt 0.294461 1.000000
vt 0.303515 0.000001
vt 0.303515 0.999999
vt 0.311617 0.999999
vt 0.311617 0.000001
vt 0.321107 0.999998
vt 0.600859 0.000002
vt 0.617524 1.000000
vt 0.600859 1.000000
vt 0.617524 0.000002
vt 0.629339 1.000000
vt 0.629339 0.000002
vt 0.641896 1.000000
vt 0.641896 0.000002
vt 0.653532 1.000000
vt 0.653531 0.000002
vt 0.664371 1.000000
vt 0.664371 0.000001
vt 0.673425 0.999999
vt 0.673425 0.000001
vt 0.681527 0.999999
vt 0.690137 0.000000
vt 0.690008 0.999998
vt 0.510777 0.999998
vt 0.492442 0.000000
vt 0.510777 0.000000
vt 0.492442 0.999998
vt 0.481383 0.000000
vt 0.481383 0.999998
vt 0.469615 0.000000
vt 0.469615 0.999998
vt 0.457071 0.000000
vt 0.457071 0.999998
vt 0.445241 0.000000
vt 0.445241 0.999998
vt 0.434091 0.000000
vt 0.434091 0.999998
vt 0.424539 0.000000
vt 0.424539 0.999998
vt 0.415943 0.000000
vt 1.000000 0.999998
vt 0.991639 0.000000
vt 1.000000 0.000000
vt 0.991639 0.999998
vt 0.978609 0.000000
vt 0.115291 0.999998
vt 0.110631 0.000000
vt 0.115291 0.000000
vt 0.110631 0.999998
vt 0.100763 0.000000
vt 0.100763 0.999998
vt 0.089411 0.000000
vt 0.089411 0.999998
vt 0.076500 0.000000
vt 0.076499 0.999998
vt 0.065441 0.000000
vt 0.065440 0.999998
vt 0.053673 0.000000
vt 0.053673 0.999998
vt 0.041129 0.000000
vt 0.041129 0.999998
vt 0.029299 0.000000
vt 0.029299 0.999998
vt 0.018149 0.000000
vt 0.018149 0.999998
vt 0.008597 0.000000
vt 0.008596 0.999998
vt 0.000000 0.000000
vt 0.935736 0.999998
vt 0.927375 0.000000
vt 0.935736 0.000000
vt 0.927375 0.999998
vt 0.914548 0.000000
vt 0.115291 1.000000
vt 0.133952 0.000002
vt 0.133980 1.000000
vt 0.145180 0.000002
vt 0.145180 1.000000
vt 0.156995 1.000000
vt 0.156995 0.000002
vt 0.169552 1.000000
vt 0.169552 0.000002
vt 0.181188 1.000000
vt 0.181188 0.000002
vt 0.192027 1.000000
vt 0.192027 0.000001
vt 0.201082 0.999999
vt 0.201082 0.000001
vt 0.209183 0.999999
vt 0.209183 0.000001
vt 0.218269 0.999998
vt 0.853610 0.999998
vt 0.837592 0.000000
vt 0.853610 0.000000
vt 0.837592 0.999998
vt 0.825824 0.000000
vt 0.825824 0.999998
vt 0.813281 0.000000
vt 0.813280 0.999998
vt 0.801451 0.000000
vt 0.801451 0.999998
vt 0.790301 0.000000
vt 0.790301 0.999998
vt 0.780748 0.000000
vt 0.780748 0.999998
vt 0.772152 0.000000
vt 0.957216 0.000000
vt 0.965577 0.999998
vt 0.957216 0.999998
vt 0.965577 0.000000
vt 0.978608 0.999998
vt 0.904366 0.000000
vt 0.914213 0.999998
vt 0.904366 0.999998
vt 0.772152 0.999998
vt 0.755578 0.000000
vt 0.772152 0.000000
vt 0.755578 0.999998
vt 0.743810 0.000000
vt 0.743810 0.999998
vt 0.731266 0.000000
vt 0.731266 0.999998
vt 0.719436 0.000000
vt 0.719436 0.999998
vt 0.708286 0.000000
vt 0.708286 0.999998
vt 0.698734 0.000000
vt 0.690137 0.999998
vt 0.690138 0.000000
vt 0.853610 0.000000
vt 0.861971 0.999998
vt 0.853610 0.999998
vt 0.861971 0.000000
vt 0.872038 0.999998
vt 0.872038 0.000000
vt 0.882802 0.999998
vt 0.882802 0.000000
vt 0.893959 0.999998
vt 0.893959 0.000000
vt 0.321108 0.999998
vt 0.935736 0.999998
vt 0.572378 0.999998
vt 0.510777 1.000000
vt 0.259429 0.000002
vt 0.294461 0.000001
vt 0.321107 0.000000
vt 0.681527 0.000001
vt 0.415942 0.999998
vt 0.978608 0.999998
vt 0.000000 0.999998
vt 0.914213 0.999998
vt 0.115291 0.000002
vt 0.218269 0.000000
vt 0.772152 0.999998
vt 0.978608 0.000000
vt 0.914213 0.000000
vt 0.698734 0.999998
vn -0.8425 0.0000 -0.5387
vn -0.8197 0.0000 -0.5728
vn -0.9102 0.0000 -0.4142
vn -0.9299 0.0000 -0.3679
vn -0.9963 0.0000 -0.0861
vn -0.9963 0.0000 0.0861
vn -0.9299 0.0000 0.3679
vn -0.9102 0.0000 0.4142
vn -0.8197 0.0000 0.5728
vn -0.8316 0.0000 0.5554
vn 0.8557 0.0000 0.5174
vn 0.9102 0.0000 0.4142
vn 0.9299 0.0000 0.3679
vn 0.9963 0.0000 0.0861
vn 0.9963 0.0000 -0.0861
vn 0.9299 0.0000 -0.3679
vn 0.9102 0.0000 -0.4142
vn 0.8442 0.0000 -0.5360
vn 0.8050 0.0000 0.5933
vn 0.8454 -0.0003 0.5342
vn 0.8443 0.0000 -0.5358
vn 0.8250 0.0002 -0.5651
vn -0.8314 0.0000 0.5557
vn -0.1330 0.0000 -0.9911
vn -0.5772 0.0000 -0.8166
vn -0.6952 0.0000 -0.7188
vn -0.8050 0.0000 -0.5932
vn -0.8132 0.0000 0.5820
vn 0.7904 -0.0010 0.6125
vn 0.8976 0.0000 0.4408
vn 0.8364 0.0000 -0.5481
vn -0.8454 0.0000 -0.5342
vn -0.8240 0.0000 0.5665
vn 0.1330 -0.0000 0.9911
vn -0.8551 0.0000 -0.5184
vn -0.8050 0.0000 0.5933
vn -0.6952 0.0000 0.7188
vn -0.5772 0.0000 0.8166
vn -0.1329 -0.0000 0.9911
vn 0.8326 -0.0004 0.5539
vn 0.8197 0.0000 0.5728
vn 0.8353 0.0000 -0.5498
vn -0.8050 0.0000 -0.5933
vn -0.8039 -0.0002 0.5947
vn 0.8420 0.0000 0.5395
vn 0.8197 -0.0010 0.5728
vn 0.1329 -0.0000 0.9911
vn -0.8050 0.0000 0.5932
vn -0.1330 -0.0000 0.9911
s off
f 2/1/1 3/2/1 1/3/1
f 4/4/2 5/5/2 3/2/2
f 6/6/3 7/7/3 5/5/3
f 8/8/4 9/9/4 7/7/4
f 10/10/5 11/11/5 9/9/5
f 12/12/6 13/13/6 11/11/6
f 14/14/7 15/15/7 13/13/7
f 16/16/8 17/17/8 15/15/8
f 18/18/9 19/19/9 17/20/9
f 20/21/10 21/22/10 19/19/10
f 2/23/11 23/24/11 1/25/11
f 24/26/12 25/27/12 23/24/12
f 25/27/13 28/28/13 27/29/13
f 28/28/14 29/30/14 27/29/14
f 30/31/15 31/32/15 29/30/15
f 32/33/16 33/34/16 31/32/16
f 34/35/17 35/36/17 33/34/17
f 36/37/18 37/38/18 35/36/18
f 42/39/19 43/40/19 41/41/19
f 44/42/20 45/43/20 43/40/20
f 46/44/12 47/45/12 45/43/12
f 47/45/13 50/46/13 49/47/13
f 50/46/14 51/48/14 49/47/14
f 52/49/15 53/50/15 51/48/15
f 53/50/16 56/51/16 55/52/16
f 56/51/17 57/53/17 55/52/17
f 58/54/21 21/55/21 57/53/21
f 62/56/11 63/57/11 61/58/11
f 64/59/12 65/60/12 63/57/12
f 66/61/13 67/62/13 65/60/13
f 68/63/14 69/64/14 67/62/14
f 70/65/15 71/66/15 69/64/15
f 72/67/16 73/68/16 71/66/16
f 74/69/17 75/70/17 73/68/17
f 75/70/22 78/71/22 77/72/22
f 62/73/1 81/74/1 61/75/1
f 82/76/2 83/77/2 81/74/2
f 84/78/3 85/79/3 83/77/3
f 86/80/4 87/81/4 85/79/4
f 88/82/5 89/83/5 87/81/5
f 90/84/6 91/85/6 89/83/6
f 92/86/7 93/87/7 91/85/7
f 94/88/8 95/89/8 93/87/8
f 96/90/9 97/91/9 95/92/9
f 98/93/23 37/94/23 97/91/23
f 101/95/24 102/96/24 100/97/24
f 103/98/25 104/99/25 102/96/25
f 105/100/26 106/101/26 104/99/26
f 107/102/27 108/103/27 106/101/27
f 109/104/2 110/105/2 108/103/2
f 111/106/3 112/107/3 110/105/3
f 113/108/4 114/109/4 112/107/4
f 115/110/5 116/111/5 114/109/5
f 117/112/6 118/113/6 116/111/6
f 119/114/7 120/115/7 118/113/7
f 121/116/8 122/117/8 120/115/8
f 123/118/9 124/119/9 122/120/9
f 125/121/28 77/122/28 124/119/28
f 126/123/29 129/124/29 128/125/29
f 128/125/30 131/126/30 130/127/30
f 131/126/12 132/128/12 130/127/12
f 133/129/13 134/130/13 132/128/13
f 135/131/14 136/132/14 134/130/14
f 137/133/15 138/134/15 136/132/15
f 139/135/16 140/136/16 138/134/16
f 141/137/17 142/138/17 140/136/17
f 143/139/31 144/140/31 142/138/31
f 42/141/32 147/142/32 41/143/32
f 148/144/3 149/145/3 147/142/3
f 150/146/4 151/147/4 149/145/4
f 152/148/5 153/149/5 151/147/5
f 154/150/6 155/151/6 153/149/6
f 156/152/7 157/153/7 155/151/7
f 158/154/8 159/155/8 157/153/8
f 160/156/9 161/157/9 159/158/9
f 162/159/33 144/160/33 161/157/33
f 164/161/34 165/162/34 163/163/34
f 127/164/35 167/165/35 126/166/35
f 168/167/3 169/168/3 167/165/3
f 170/169/4 171/170/4 169/168/4
f 172/171/5 173/172/5 171/170/5
f 174/173/6 175/174/6 173/172/6
f 176/175/7 177/176/7 175/174/7
f 177/176/8 180/177/8 179/178/8
f 180/179/9 181/180/9 179/181/9
f 182/182/36 183/183/36 181/180/36
f 184/184/37 185/185/37 183/183/37
f 186/186/38 187/187/38 185/185/38
f 188/188/39 163/163/39 187/187/39
f 2/1/1 4/4/1 3/2/1
f 4/4/2 6/6/2 5/5/2
f 6/6/3 8/8/3 7/7/3
f 8/8/4 10/10/4 9/9/4
f 10/10/5 12/12/5 11/11/5
f 12/12/6 14/14/6 13/13/6
f 14/14/7 16/16/7 15/15/7
f 16/16/8 18/189/8 17/17/8
f 18/18/9 20/21/9 19/19/9
f 20/21/10 22/190/10 21/22/10
f 2/23/11 24/26/11 23/24/11
f 24/26/12 26/191/12 25/27/12
f 25/27/13 26/191/13 28/28/13
f 28/28/14 30/31/14 29/30/14
f 30/31/15 32/33/15 31/32/15
f 32/33/16 34/35/16 33/34/16
f 34/35/17 36/37/17 35/36/17
f 36/37/18 38/192/18 37/38/18
f 42/39/40 44/42/40 43/40/40
f 44/42/41 46/44/41 45/43/41
f 46/44/12 48/193/12 47/45/12
f 47/45/13 48/193/13 50/46/13
f 50/46/14 52/49/14 51/48/14
f 52/49/15 54/194/15 53/50/15
f 53/50/16 54/194/16 56/51/16
f 56/51/17 58/54/17 57/53/17
f 58/54/21 22/195/21 21/55/21
f 62/56/11 64/59/11 63/57/11
f 64/59/12 66/61/12 65/60/12
f 66/61/13 68/63/13 67/62/13
f 68/63/14 70/65/14 69/64/14
f 70/65/15 72/67/15 71/66/15
f 72/67/16 74/69/16 73/68/16
f 74/69/17 76/196/17 75/70/17
f 75/70/42 76/196/42 78/71/42
f 62/73/1 82/76/1 81/74/1
f 82/76/2 84/78/2 83/77/2
f 84/78/3 86/80/3 85/79/3
f 86/80/4 88/82/4 87/81/4
f 88/82/5 90/84/5 89/83/5
f 90/84/6 92/86/6 91/85/6
f 92/86/7 94/88/7 93/87/7
f 94/88/8 96/197/8 95/89/8
f 96/90/9 98/93/9 97/91/9
f 98/93/23 38/198/23 37/94/23
f 101/95/24 103/98/24 102/96/24
f 103/98/25 105/100/25 104/99/25
f 105/100/26 107/102/26 106/101/26
f 107/102/43 109/104/43 108/103/43
f 109/104/2 111/106/2 110/105/2
f 111/106/3 113/108/3 112/107/3
f 113/108/4 115/110/4 114/109/4
f 115/110/5 117/112/5 116/111/5
f 117/112/6 119/114/6 118/113/6
f 119/114/7 121/116/7 120/115/7
f 121/116/8 123/199/8 122/117/8
f 123/118/9 125/121/9 124/119/9
f 125/121/44 78/200/44 77/122/44
f 126/123/45 127/201/45 129/124/45
f 128/125/46 129/124/46 131/126/46
f 131/126/12 133/129/12 132/128/12
f 133/129/13 135/131/13 134/130/13
f 135/131/14 137/133/14 136/132/14
f 137/133/15 139/135/15 138/134/15
f 139/135/16 141/137/16 140/136/16
f 141/137/17 143/139/17 142/138/17
f 143/139/31 145/202/31 144/140/31
f 42/141/32 148/144/32 147/142/32
f 148/144/3 150/146/3 149/145/3
f 150/146/4 152/148/4 151/147/4
f 152/148/5 154/150/5 153/149/5
f 154/150/6 156/152/6 155/151/6
f 156/152/7 158/154/7 157/153/7
f 158/154/8 160/203/8 159/155/8
f 160/156/9 162/159/9 161/157/9
f 162/159/33 145/204/33 144/160/33
f 164/161/47 166/205/47 165/162/47
f 127/164/35 168/167/35 167/165/35
f 168/167/3 170/169/3 169/168/3
f 170/169/4 172/171/4 171/170/4
f 172/171/5 174/173/5 173/172/5
f 174/173/6 176/175/6 175/174/6
f 176/175/7 178/206/7 177/176/7
f 177/176/8 178/206/8 180/177/8
f 180/179/9 182/182/9 181/180/9
f 182/182/48 184/184/48 183/183/48
f 184/184/37 186/186/37 185/185/37
f 186/186/38 188/188/38 187/187/38
f 188/188/49 164/161/49 163/163/49
l 37 39
l 40 38
l 77 79
l 80 78
l 101 99
l 144 146
l 21 59
l 60 22
