# Blender v3.1.2 OBJ File: 'Casa2.blend'
# www.blender.org
o Casa_Muros_Plano.003
v 4.000000 1.804371 -0.120000
v 4.000000 0.000002 -0.120000
v 4.000000 1.804370 -1.990000
v 4.000000 0.000004 -1.990000
v 4.000000 1.804368 -1.420001
v 4.000000 1.804371 -0.519999
v 4.000000 0.000007 -0.519998
v 4.000000 0.000003 -1.420001
v 4.000000 1.636367 -0.120000
v 4.000000 0.736369 -0.119999
v 4.000000 0.736369 -1.990001
v 4.000000 1.636371 -1.990000
v 4.000000 0.736371 -0.520000
v 4.000000 1.636370 -0.520000
v 4.000000 0.736370 -1.420002
v 4.000000 1.636370 -1.420001
v 0.150001 0.000002 -6.030001
v 3.850000 0.000002 -6.030001
v 0.150001 1.804370 -6.030001
v 3.850000 1.804370 -6.030001
v 0.551540 0.000002 -6.030001
v 1.451542 0.000002 -6.030001
v 2.551541 0.000002 -6.030001
v 3.451540 0.000002 -6.030001
v 3.451540 1.804370 -6.030001
v 2.551541 1.804370 -6.030001
v 1.451541 1.804370 -6.030001
v 0.551540 1.804370 -6.030001
v 0.150001 1.636371 -6.030001
v 0.150001 0.736371 -6.030001
v 3.850000 0.736371 -6.030001
v 3.850000 1.636371 -6.030001
v 0.551540 0.736371 -6.030001
v 0.551540 1.636371 -6.030001
v 1.451541 0.736371 -6.030001
v 1.451541 1.636371 -6.030001
v 2.551541 0.736371 -6.030001
v 2.551541 1.636371 -6.030001
v 3.451540 0.736371 -6.030001
v 3.451540 1.636371 -6.030001
v 0.150001 0.000002 0.030000
v 3.850000 0.000002 0.030000
v 0.150001 1.804370 0.030000
v 3.850000 1.804370 0.030000
v 0.551540 0.000002 0.030000
v 1.451542 0.000002 0.030000
v 2.551541 0.000002 0.030000
v 3.451540 0.000002 0.030000
v 3.451540 1.804370 0.030000
v 2.551541 1.804370 0.030000
v 1.451541 1.804370 0.030000
v 0.551540 1.804370 0.030000
v 0.150001 1.636371 0.030000
v 0.150001 0.736371 0.030000
v 3.850000 0.736371 0.030000
v 3.850000 1.636371 0.030000
v 0.551540 0.736371 0.030000
v 0.551540 1.636371 0.030000
v 1.451541 0.736371 0.030000
v 1.451541 1.636371 0.030000
v 2.551541 0.736371 0.030000
v 2.551541 1.636371 0.030000
v 3.451540 0.736371 0.030000
v 3.451540 1.636371 0.030000
v -0.000001 1.804370 -0.120001
v -0.000001 0.000003 -0.120001
v -0.000001 1.804370 -5.880001
v -0.000001 0.000003 -5.880001
v -0.000001 1.636370 -0.120001
v -0.000001 0.736369 -0.120001
v -0.000001 0.736369 -5.880001
v -0.000001 1.636370 -5.880001
v -0.000001 1.804370 -5.459923
v -0.000001 1.804370 -4.559920
v -0.000001 1.804370 -3.460001
v -0.000001 1.804370 -2.559999
v -0.000001 1.804370 -1.420001
v -0.000001 1.804370 -0.519999
v -0.000001 0.000003 -0.519999
v -0.000001 0.000003 -1.420001
v -0.000001 0.000003 -2.559999
v -0.000001 0.000003 -3.460001
v -0.000001 0.000003 -4.559920
v -0.000001 0.000003 -5.459923
v -0.000001 1.636370 -0.519999
v -0.000001 1.636370 -1.420001
v -0.000001 1.636370 -2.559999
v -0.000001 1.636370 -3.460001
v -0.000001 1.636370 -4.559920
v -0.000001 1.636370 -5.459923
v -0.000001 0.736369 -0.519999
v -0.000001 0.736369 -1.420001
v -0.000001 0.736369 -2.559999
v -0.000001 0.736369 -3.460001
v -0.000001 0.736369 -4.559920
v -0.000001 0.736369 -5.459923
v 4.000000 1.804371 -5.879998
v 4.000000 0.000002 -5.879998
v 4.000000 1.804370 -4.010001
v 4.000000 0.000004 -4.010002
v 4.000000 1.804368 -4.559920
v 4.000000 1.804371 -5.459924
v 4.000000 0.000007 -5.459925
v 4.000000 0.000003 -4.559920
v 4.000000 1.636367 -5.879998
v 4.000000 0.736369 -5.879999
v 4.000000 0.736369 -4.010000
v 4.000000 1.636371 -4.010001
v 4.000000 0.736371 -5.459923
v 4.000000 1.636370 -5.459924
v 4.000000 0.736370 -4.559919
v 4.000000 1.636370 -4.559920
vt 0.666667 0.666667
vt 1.000000 1.000000
vt 0.666667 1.000000
vt 0.666667 0.000000
vt 1.000000 0.333333
vt 0.666667 0.333333
vt 0.333333 0.333333
vt 0.000000 0.666667
vt 0.000000 0.333333
vt 0.000000 0.000000
vt 0.333333 0.000000
vt 0.333333 1.000000
vt 0.000000 1.000000
vt 0.333333 0.666667
vt 1.000000 0.824427
vt 0.800000 1.000000
vt 0.800000 0.824427
vt 0.200000 0.824428
vt 0.000000 1.000000
vt 0.000000 0.824427
vt 0.400000 0.824427
vt 0.200000 1.000000
vt 0.600000 0.824427
vt 0.400000 1.000000
vt 0.600000 1.000000
vt 0.800000 0.000000
vt 0.600000 0.491094
vt 0.600000 0.000000
vt 0.400000 0.000000
vt 0.400000 0.491094
vt 0.200000 0.491094
vt 0.200000 0.000000
vt 0.000000 0.491094
vt 0.000000 0.000000
vt 1.000000 0.000000
vt 0.800000 0.491094
vt 1.000000 0.824427
vt 0.800000 1.000000
vt 0.800000 0.824427
vt 0.200000 0.824428
vt 0.000000 1.000000
vt 0.000000 0.824427
vt 0.400000 0.824427
vt 0.200000 1.000000
vt 0.600000 0.824427
vt 0.400000 1.000000
vt 0.600000 1.000000
vt 0.800000 0.000000
vt 0.600000 0.491094
vt 0.600000 0.000000
vt 0.400000 0.000000
vt 0.400000 0.491094
vt 0.200000 0.491094
vt 0.200000 0.000000
vt 0.000000 0.491094
vt 0.000000 0.000000
vt 1.000000 0.000000
vt 0.800000 0.491094
vt 1.000000 0.857143
vt 0.666667 1.000000
vt 0.666667 0.857143
vt 0.333333 0.857143
vt 0.000000 1.000000
vt 0.000000 0.857143
vt 0.333333 1.000000
vt 0.666667 0.000000
vt 0.333333 0.142857
vt 0.333333 0.000000
vt 0.666667 0.285714
vt 0.333333 0.428571
vt 0.333333 0.285714
vt 0.666667 0.571429
vt 0.333333 0.714286
vt 0.333333 0.571429
vt 0.000000 0.142857
vt 0.000000 0.000000
vt 0.000000 0.285714
vt 0.000000 0.428571
vt 0.000000 0.571429
vt 0.000000 0.714286
vt 1.000000 0.000000
vt 0.666667 0.142857
vt 1.000000 0.142857
vt 1.000000 0.285714
vt 0.666667 0.428571
vt 1.000000 0.428571
vt 1.000000 0.714286
vt 0.666667 0.714286
vt 0.666667 0.666667
vt 1.000000 1.000000
vt 0.666667 1.000000
vt 0.666667 0.000000
vt 1.000000 0.333333
vt 0.666667 0.333333
vt 0.333333 0.333333
vt 0.000000 0.666667
vt 0.000000 0.333333
vt 0.000000 0.000000
vt 0.333333 0.000000
vt 0.333333 1.000000
vt 0.000000 1.000000
vt 0.333333 0.666667
vt 1.000000 0.666667
vt 1.000000 0.000000
vt 1.000000 1.000000
vt 1.000000 0.491094
vt 1.000000 1.000000
vt 1.000000 0.491094
vt 1.000000 1.000000
vt 1.000000 0.571429
vt 1.000000 0.666667
vt 1.000000 0.000000
vn 1.0000 0.0000 0.0000
vn 0.0000 0.0000 1.0000
vn -1.0000 -0.0000 0.0000
s off
f 15/1/1 4/2/1 11/3/1
f 10/4/1 7/5/1 13/6/1
f 7/5/1 15/1/1 13/6/1
f 14/7/1 5/8/1 6/9/1
f 1/10/1 14/7/1 6/9/1
f 9/11/1 13/6/1 14/7/1
f 5/8/1 12/12/1 3/13/1
f 15/1/1 12/12/1 16/14/1
f 32/15/2 25/16/2 40/17/2
f 34/18/2 19/19/2 29/20/2
f 36/21/2 28/22/2 34/18/2
f 38/23/2 27/24/2 36/21/2
f 40/17/2 26/25/2 38/23/2
f 24/26/2 37/27/2 23/28/2
f 22/29/2 37/27/2 35/30/2
f 37/27/2 36/21/2 35/30/2
f 22/29/2 33/31/2 21/32/2
f 21/32/2 30/33/2 17/34/2
f 33/31/2 29/20/2 30/33/2
f 18/35/2 39/36/2 24/26/2
f 39/36/2 32/15/2 40/17/2
f 56/37/2 49/38/2 64/39/2
f 58/40/2 43/41/2 53/42/2
f 60/43/2 52/44/2 58/40/2
f 62/45/2 51/46/2 60/43/2
f 64/39/2 50/47/2 62/45/2
f 48/48/2 61/49/2 47/50/2
f 46/51/2 61/49/2 59/52/2
f 61/49/2 60/43/2 59/52/2
f 46/51/2 57/53/2 45/54/2
f 45/54/2 54/55/2 41/56/2
f 57/53/2 53/42/2 54/55/2
f 42/57/2 63/58/2 48/48/2
f 63/58/2 56/37/2 64/39/2
f 84/59/1 71/60/1 96/61/1
f 90/62/1 67/63/1 73/64/1
f 96/61/1 72/65/1 90/62/1
f 70/66/1 85/67/1 69/68/1
f 92/69/1 87/70/1 86/71/1
f 94/72/1 89/73/1 88/74/1
f 69/68/1 78/75/1 65/76/1
f 85/67/1 77/77/1 78/75/1
f 86/71/1 76/78/1 77/77/1
f 87/70/1 75/79/1 76/78/1
f 88/74/1 74/80/1 75/79/1
f 89/73/1 73/64/1 74/80/1
f 66/81/1 91/82/1 70/66/1
f 79/83/1 92/69/1 91/82/1
f 80/84/1 93/85/1 92/69/1
f 81/86/1 94/72/1 93/85/1
f 94/72/1 83/87/1 95/88/1
f 83/87/1 96/61/1 95/88/1
f 111/89/3 100/90/3 107/91/3
f 106/92/3 103/93/3 109/94/3
f 103/93/3 111/89/3 109/94/3
f 110/95/3 101/96/3 102/97/3
f 97/98/3 110/95/3 102/97/3
f 105/99/3 109/94/3 110/95/3
f 101/96/3 108/100/3 99/101/3
f 111/89/3 108/100/3 112/102/3
f 15/1/1 8/103/1 4/2/1
f 10/4/1 2/104/1 7/5/1
f 7/5/1 8/103/1 15/1/1
f 14/7/1 16/14/1 5/8/1
f 1/10/1 9/11/1 14/7/1
f 9/11/1 10/4/1 13/6/1
f 5/8/1 16/14/1 12/12/1
f 15/1/1 11/3/1 12/12/1
f 32/15/2 20/105/2 25/16/2
f 34/18/2 28/22/2 19/19/2
f 36/21/2 27/24/2 28/22/2
f 38/23/2 26/25/2 27/24/2
f 40/17/2 25/16/2 26/25/2
f 24/26/2 39/36/2 37/27/2
f 22/29/2 23/28/2 37/27/2
f 37/27/2 38/23/2 36/21/2
f 22/29/2 35/30/2 33/31/2
f 21/32/2 33/31/2 30/33/2
f 33/31/2 34/18/2 29/20/2
f 18/35/2 31/106/2 39/36/2
f 39/36/2 31/106/2 32/15/2
f 56/37/2 44/107/2 49/38/2
f 58/40/2 52/44/2 43/41/2
f 60/43/2 51/46/2 52/44/2
f 62/45/2 50/47/2 51/46/2
f 64/39/2 49/38/2 50/47/2
f 48/48/2 63/58/2 61/49/2
f 46/51/2 47/50/2 61/49/2
f 61/49/2 62/45/2 60/43/2
f 46/51/2 59/52/2 57/53/2
f 45/54/2 57/53/2 54/55/2
f 57/53/2 58/40/2 53/42/2
f 42/57/2 55/108/2 63/58/2
f 63/58/2 55/108/2 56/37/2
f 84/59/1 68/109/1 71/60/1
f 90/62/1 72/65/1 67/63/1
f 96/61/1 71/60/1 72/65/1
f 70/66/1 91/82/1 85/67/1
f 92/69/1 93/85/1 87/70/1
f 94/72/1 95/88/1 89/73/1
f 69/68/1 85/67/1 78/75/1
f 85/67/1 86/71/1 77/77/1
f 86/71/1 87/70/1 76/78/1
f 87/70/1 88/74/1 75/79/1
f 88/74/1 89/73/1 74/80/1
f 89/73/1 90/62/1 73/64/1
f 66/81/1 79/83/1 91/82/1
f 79/83/1 80/84/1 92/69/1
f 80/84/1 81/86/1 93/85/1
f 81/86/1 82/110/1 94/72/1
f 94/72/1 82/110/1 83/87/1
f 83/87/1 84/59/1 96/61/1
f 111/89/3 104/111/3 100/90/3
f 106/92/3 98/112/3 103/93/3
f 103/93/3 104/111/3 111/89/3
f 110/95/3 112/102/3 101/96/3
f 97/98/3 105/99/3 110/95/3
f 105/99/3 106/92/3 109/94/3
f 101/96/3 112/102/3 108/100/3
f 111/89/3 107/91/3 108/100/3
