# Blender v3.1.2 OBJ File: 'Casa2.blend'
# www.blender.org
o Casa_Muros_B_Plano.008
v -0.000001 1.804370 -0.120001
v -0.000001 0.000003 -0.120001
v -0.000001 1.804370 -5.880001
v -0.000001 0.000003 -5.880001
v -0.000001 1.636370 -0.120001
v -0.000001 0.736369 -0.120001
v -0.000001 0.736369 -5.880001
v -0.000001 1.636370 -5.880001
v -0.000001 1.804370 -5.459923
v -0.000001 1.804370 -4.559920
v -0.000001 1.804370 -3.460001
v -0.000001 1.804370 -2.559999
v -0.000001 1.804370 -1.420001
v -0.000001 1.804370 -0.519999
v -0.000001 0.000003 -0.519999
v -0.000001 0.000003 -1.420001
v -0.000001 0.000003 -2.559999
v -0.000001 0.000003 -3.460001
v -0.000001 0.000003 -4.559920
v -0.000001 0.000003 -5.459923
v -0.000001 1.636370 -0.519999
v -0.000001 1.636370 -1.420001
v -0.000001 1.636370 -2.559999
v -0.000001 1.636370 -3.460001
v -0.000001 1.636370 -4.559920
v -0.000001 1.636370 -5.459923
v -0.000001 0.736369 -0.519999
v -0.000001 0.736369 -1.420001
v -0.000001 0.736369 -2.559999
v -0.000001 0.736369 -3.460001
v -0.000001 0.736369 -4.559920
v -0.000001 0.736369 -5.459923
vt 1.000000 0.857143
vt 0.666667 1.000000
vt 0.666667 0.857143
vt 0.333333 0.857143
vt 0.000000 1.000000
vt 0.000000 0.857143
vt 0.333333 1.000000
vt 0.666667 0.000000
vt 0.333333 0.142857
vt 0.333333 0.000000
vt 0.666667 0.285714
vt 0.333333 0.428571
vt 0.333333 0.285714
vt 0.666667 0.571429
vt 0.333333 0.714286
vt 0.333333 0.571429
vt 0.000000 0.142857
vt 0.000000 0.000000
vt 0.000000 0.285714
vt 0.000000 0.428571
vt 0.000000 0.571429
vt 0.000000 0.714286
vt 1.000000 0.000000
vt 0.666667 0.142857
vt 1.000000 0.142857
vt 1.000000 0.285714
vt 0.666667 0.428571
vt 1.000000 0.428571
vt 1.000000 0.714286
vt 0.666667 0.714286
vt 1.000000 1.000000
vt 1.000000 0.571429
vn 1.0000 0.0000 0.0000
s off
f 20/1/1 7/2/1 32/3/1
f 26/4/1 3/5/1 9/6/1
f 32/3/1 8/7/1 26/4/1
f 6/8/1 21/9/1 5/10/1
f 28/11/1 23/12/1 22/13/1
f 30/14/1 25/15/1 24/16/1
f 5/10/1 14/17/1 1/18/1
f 21/9/1 13/19/1 14/17/1
f 22/13/1 12/20/1 13/19/1
f 23/12/1 11/21/1 12/20/1
f 24/16/1 10/22/1 11/21/1
f 25/15/1 9/6/1 10/22/1
f 2/23/1 27/24/1 6/8/1
f 15/25/1 28/11/1 27/24/1
f 16/26/1 29/27/1 28/11/1
f 17/28/1 30/14/1 29/27/1
f 30/14/1 19/29/1 31/30/1
f 19/29/1 32/3/1 31/30/1
f 20/1/1 4/31/1 7/2/1
f 26/4/1 8/7/1 3/5/1
f 32/3/1 7/2/1 8/7/1
f 6/8/1 27/24/1 21/9/1
f 28/11/1 29/27/1 23/12/1
f 30/14/1 31/30/1 25/15/1
f 5/10/1 21/9/1 14/17/1
f 21/9/1 22/13/1 13/19/1
f 22/13/1 23/12/1 12/20/1
f 23/12/1 24/16/1 11/21/1
f 24/16/1 25/15/1 10/22/1
f 25/15/1 26/4/1 9/6/1
f 2/23/1 15/25/1 27/24/1
f 15/25/1 16/26/1 28/11/1
f 16/26/1 17/28/1 29/27/1
f 17/28/1 18/32/1 30/14/1
f 30/14/1 18/32/1 19/29/1
f 19/29/1 20/1/1 32/3/1
