# Blender v3.1.2 OBJ File: 'Casa2.blend'
# www.blender.org
o Casa_Canaleta_Cilindro
v -0.000038 0.022918 0.030510
v 3.999938 0.022918 0.030510
v -0.000038 0.003818 0.036043
v 3.999938 0.003818 0.036043
v 0.000010 -0.014549 0.052428
v 3.999987 -0.014549 0.052428
v -0.000038 -0.028559 0.071893
v 3.999938 -0.028559 0.071893
v -0.000038 -0.039427 0.095305
v 3.999938 -0.039427 0.095305
v -0.000038 -0.046520 0.129170
v 3.999938 -0.046520 0.129170
v -0.000038 -0.051862 0.184830
v 3.999938 -0.051862 0.184830
v 4.000034 0.022918 -6.030985
v 0.000058 0.022919 -6.030985
v 4.000034 0.003818 -6.036518
v 0.000058 0.003818 -6.036518
v 3.999986 -0.014549 -6.052903
v 0.000009 -0.014549 -6.052903
v 4.000034 -0.028560 -6.072368
v 0.000058 -0.028559 -6.072368
v 4.000034 -0.039427 -6.095779
v 0.000058 -0.039427 -6.095780
v 4.000034 -0.046520 -6.129645
v 0.000058 -0.046520 -6.129645
v 4.000034 -0.051862 -6.185305
v 0.000058 -0.051862 -6.185306
v -0.000193 0.022918 -6.030060
v -0.000193 0.022919 0.029994
v -0.005725 0.003818 -6.030060
v -0.005726 0.003818 0.029994
v -0.022111 -0.014549 -6.030011
v -0.022111 -0.014549 0.030042
v -0.041575 -0.028559 -6.030060
v -0.041575 -0.028559 0.029994
v -0.064987 -0.039427 -6.030060
v -0.064987 -0.039427 0.029994
v -0.098853 -0.046520 -6.030060
v -0.098853 -0.046520 0.029994
v -0.154513 -0.051862 -6.030060
v -0.154513 -0.051862 0.029994
v 4.000895 0.022918 0.027059
v 4.000895 0.022919 -6.032994
v 4.006427 0.003818 0.027059
v 4.006427 0.003818 -6.032994
v 4.022813 -0.014549 0.027011
v 4.022813 -0.014549 -6.033042
v 4.042277 -0.028559 0.027059
v 4.042277 -0.028559 -6.032994
v 4.065689 -0.039427 0.027059
v 4.065689 -0.039427 -6.032994
v 4.099555 -0.046520 0.027059
v 4.099555 -0.046520 -6.032994
v 4.155215 -0.051862 0.027059
v 4.155215 -0.051862 -6.032994
v 4.000895 0.022918 -1.992959
v 4.000895 0.022919 -4.012977
v 4.006427 0.003818 -4.012976
v 4.006427 0.003818 -1.992959
v 4.022813 -0.014549 -4.013025
v 4.022813 -0.014549 -1.993007
v 4.042277 -0.028559 -4.012976
v 4.042277 -0.028559 -1.992959
v 4.065689 -0.039427 -4.012976
v 4.065689 -0.039427 -1.992959
v 4.099555 -0.046520 -4.012976
v 4.099555 -0.046520 -1.992959
v 4.155215 -0.051862 -4.012976
v 4.155215 -0.051862 -1.992959
vt 1.000000 0.500000
vt 0.968750 1.000000
vt 0.968750 0.500000
vt 0.937500 0.500000
vt 0.906250 1.000000
vt 0.906250 0.500000
vt 0.875000 0.500000
vt 0.875000 1.000000
vt 0.843750 0.500000
vt 0.843750 1.000000
vt 0.812500 0.500000
vt 1.000000 1.000000
vt 0.968750 0.500000
vt 1.000000 0.500000
vt 0.968750 1.000000
vt 0.937500 0.500000
vt 0.906250 1.000000
vt 0.906250 0.500000
vt 0.875000 0.500000
vt 0.875000 1.000000
vt 0.843750 0.500000
vt 0.843750 1.000000
vt 0.812500 0.500000
vt 1.000000 1.000000
vt 0.968750 0.500000
vt 1.000000 0.500000
vt 0.968750 1.000000
vt 0.937500 0.500000
vt 0.906250 1.000000
vt 0.906250 0.500000
vt 0.875000 0.500000
vt 0.875000 1.000000
vt 0.843750 0.500000
vt 0.843750 1.000000
vt 0.812500 0.500000
vt 1.000000 0.833333
vt 0.968750 1.000000
vt 0.968750 0.833333
vt 0.937500 0.833333
vt 0.906250 1.000000
vt 0.906250 0.833333
vt 0.875000 0.833333
vt 0.875000 1.000000
vt 0.843750 0.833333
vt 0.843750 1.000000
vt 0.812500 0.833333
vt 0.843750 0.666667
vt 0.812500 0.500000
vt 0.843750 0.500000
vt 0.875000 0.666667
vt 0.875000 0.500000
vt 0.906250 0.666667
vt 0.906250 0.500000
vt 0.937500 0.500000
vt 0.968750 0.666667
vt 0.968750 0.500000
vt 1.000000 0.666667
vt 1.000000 0.500000
vt 1.000000 1.000000
vt 0.937500 1.000000
vt 0.812500 1.000000
vt 0.937500 1.000000
vt 0.812500 1.000000
vt 0.937500 1.000000
vt 0.812500 1.000000
vt 1.000000 1.000000
vt 0.937500 1.000000
vt 0.812500 1.000000
vt 0.812500 0.666667
vt 0.937500 0.666667
vn -0.0000 -0.2782 -0.9605
vn -0.0000 -0.6657 -0.7462
vn -0.0000 -0.8116 -0.5842
vn -0.0000 -0.9070 -0.4210
vn -0.0000 -0.9788 -0.2050
vn -0.0000 -0.9954 -0.0955
vn 0.0000 -0.2782 0.9605
vn 0.0000 -0.6657 0.7462
vn -0.0000 -0.8116 0.5842
vn -0.0000 -0.9070 0.4210
vn -0.0000 -0.9788 0.2050
vn -0.0000 -0.9954 0.0955
vn 0.9605 -0.2782 0.0000
vn 0.7462 -0.6657 0.0000
vn 0.5842 -0.8116 0.0000
vn 0.4210 -0.9070 0.0000
vn 0.2050 -0.9788 0.0000
vn 0.0955 -0.9954 0.0000
vn -0.9605 -0.2782 -0.0000
vn -0.7462 -0.6657 -0.0000
vn -0.5842 -0.8116 -0.0000
vn -0.4210 -0.9070 -0.0000
vn -0.2050 -0.9788 -0.0000
vn -0.0955 -0.9954 0.0000
s off
f 1/1/1 4/2/1 3/3/1
f 4/2/2 5/4/2 3/3/2
f 5/4/3 8/5/3 7/6/3
f 8/5/4 9/7/4 7/6/4
f 10/8/5 11/9/5 9/7/5
f 12/10/6 13/11/6 11/9/6
f 16/12/7 17/13/7 15/14/7
f 18/15/8 19/16/8 17/13/8
f 19/16/9 22/17/9 21/18/9
f 22/17/10 23/19/10 21/18/10
f 24/20/11 25/21/11 23/19/11
f 26/22/12 27/23/12 25/21/12
f 30/24/13 31/25/13 29/26/13
f 32/27/14 33/28/14 31/25/14
f 33/28/15 36/29/15 35/30/15
f 36/29/16 37/31/16 35/30/16
f 38/32/17 39/33/17 37/31/17
f 40/34/18 41/35/18 39/33/18
f 58/36/19 46/37/19 59/38/19
f 46/37/20 61/39/20 59/38/20
f 61/39/21 50/40/21 63/41/21
f 50/40/22 65/42/22 63/41/22
f 52/43/23 67/44/23 65/42/23
f 54/45/24 69/46/24 67/44/24
f 68/47/24 55/48/24 53/49/24
f 66/50/23 53/49/23 51/51/23
f 64/52/22 51/51/22 49/53/22
f 47/54/21 64/52/21 49/53/21
f 60/55/20 47/54/20 45/56/20
f 57/57/19 45/56/19 43/58/19
f 1/1/1 2/59/1 4/2/1
f 4/2/2 6/60/2 5/4/2
f 5/4/3 6/60/3 8/5/3
f 8/5/4 10/8/4 9/7/4
f 10/8/5 12/10/5 11/9/5
f 12/10/6 14/61/6 13/11/6
f 16/12/7 18/15/7 17/13/7
f 18/15/8 20/62/8 19/16/8
f 19/16/9 20/62/9 22/17/9
f 22/17/10 24/20/10 23/19/10
f 24/20/11 26/22/11 25/21/11
f 26/22/12 28/63/12 27/23/12
f 30/24/13 32/27/13 31/25/13
f 32/27/14 34/64/14 33/28/14
f 33/28/15 34/64/15 36/29/15
f 36/29/16 38/32/16 37/31/16
f 38/32/17 40/34/17 39/33/17
f 40/34/18 42/65/18 41/35/18
f 58/36/19 44/66/19 46/37/19
f 46/37/20 48/67/20 61/39/20
f 61/39/21 48/67/21 50/40/21
f 50/40/22 52/43/22 65/42/22
f 52/43/23 54/45/23 67/44/23
f 54/45/24 56/68/24 69/46/24
f 68/47/24 70/69/24 55/48/24
f 66/50/23 68/47/23 53/49/23
f 64/52/22 66/50/22 51/51/22
f 47/54/21 62/70/21 64/52/21
f 60/55/20 62/70/20 47/54/20
f 57/57/19 60/55/19 45/56/19
