# Blender v3.1.2 OBJ File: 'Casa2.blend'
# www.blender.org
o Casa_Techo2_Plano.011
v -0.000001 1.804371 -6.030000
v 0.000000 1.804371 0.029999
v 4.000000 1.804371 0.029999
v 4.000000 1.804371 -6.030000
v -0.000001 1.804371 -5.880000
v 0.000000 1.804371 -0.120000
v 4.000001 1.804371 -0.119999
v 4.000000 1.804371 -5.879999
v 0.150001 1.804371 0.029999
v 3.850001 1.804371 0.029999
v 3.849999 1.804371 -6.030000
v 0.150000 1.804371 -6.030000
v 4.000000 0.000001 0.029999
v -0.000001 0.000001 -6.030000
v 4.000000 0.000001 -6.030000
v 0.000000 0.000001 0.029999
v -0.000001 0.000001 -5.880000
v 0.000000 0.000001 -0.120000
v 4.000001 0.000001 -0.119999
v 4.000000 0.000001 -5.879999
v 0.150001 0.000001 0.029999
v 3.850001 0.000001 0.029999
v 3.849999 0.000001 -6.030000
v 0.150000 0.000001 -6.030000
vt 0.668516 0.308544
vt 0.681263 0.000000
vt 0.681263 0.308544
vt 0.559533 0.351149
vt 0.339565 0.342747
vt 0.559542 0.342744
vt 0.000000 0.651287
vt 0.008405 0.342743
vt 0.008405 0.651287
vt 0.000000 0.308544
vt 0.012784 0.000000
vt 0.012784 0.308544
vt 0.327876 0.308544
vt 0.340632 0.000000
vt 0.340631 0.308544
vt 0.340631 0.308544
vt 0.353424 0.000000
vt 0.353424 0.308544
vt 0.559533 0.682301
vt 0.339565 0.673899
vt 0.559542 0.673896
vt 0.331152 0.651288
vt 0.339557 0.342743
vt 0.339557 0.651288
vt 0.668516 0.000000
vt 0.339557 0.351152
vt 0.000000 0.342743
vt 0.000000 0.000000
vt 0.327876 0.000000
vt 0.340632 0.000000
vt 0.339557 0.682304
vt 0.331152 0.342743
vn 0.0000 0.0000 -1.0000
vn 1.0000 0.0000 0.0000
vn -1.0000 0.0000 0.0000
vn 0.0000 0.0000 1.0000
s off
f 9/1/1 16/2/1 2/3/1
f 5/4/2 14/5/2 1/6/2
f 4/7/3 20/8/3 8/9/3
f 1/10/4 24/11/4 12/12/4
f 11/13/4 15/14/4 4/15/4
f 3/16/1 22/17/1 10/18/1
f 2/19/2 18/20/2 6/21/2
f 7/22/3 13/23/3 3/24/3
f 9/1/1 21/25/1 16/2/1
f 5/4/2 17/26/2 14/5/2
f 4/7/3 15/27/3 20/8/3
f 1/10/4 14/28/4 24/11/4
f 11/13/4 23/29/4 15/14/4
f 3/16/1 13/30/1 22/17/1
f 2/19/2 16/31/2 18/20/2
f 7/22/3 19/32/3 13/23/3
