# Blender v3.1.2 OBJ File: 'Casa2.blend'
# www.blender.org
o Casa_Muros_F1_Plano.001
v 4.000000 1.804371 -5.879998
v 4.000000 0.000002 -5.879998
v 4.000000 1.804370 -4.010001
v 4.000000 0.000004 -4.010002
v 4.000000 1.804368 -4.559920
v 4.000000 1.804371 -5.459924
v 4.000000 0.000007 -5.459925
v 4.000000 0.000003 -4.559920
v 4.000000 1.636367 -5.879998
v 4.000000 0.736369 -5.879999
v 4.000000 0.736369 -4.010000
v 4.000000 1.636371 -4.010001
v 4.000000 0.736371 -5.459923
v 4.000000 1.636370 -5.459924
v 4.000000 0.736370 -4.559919
v 4.000000 1.636370 -4.559920
vt 0.666667 0.666667
vt 1.000000 1.000000
vt 0.666667 1.000000
vt 0.666667 0.000000
vt 1.000000 0.333333
vt 0.666667 0.333333
vt 0.333333 0.333333
vt 0.000000 0.666667
vt 0.000000 0.333333
vt 0.000000 0.000000
vt 0.333333 0.000000
vt 0.333333 1.000000
vt 0.000000 1.000000
vt 0.333333 0.666667
vt 1.000000 0.666667
vt 1.000000 0.000000
vn -1.0000 -0.0000 0.0000
s off
f 15/1/1 4/2/1 11/3/1
f 10/4/1 7/5/1 13/6/1
f 7/5/1 15/1/1 13/6/1
f 14/7/1 5/8/1 6/9/1
f 1/10/1 14/7/1 6/9/1
f 9/11/1 13/6/1 14/7/1
f 5/8/1 12/12/1 3/13/1
f 15/1/1 12/12/1 16/14/1
f 15/1/1 8/15/1 4/2/1
f 10/4/1 2/16/1 7/5/1
f 7/5/1 8/15/1 15/1/1
f 14/7/1 16/14/1 5/8/1
f 1/10/1 9/11/1 14/7/1
f 9/11/1 10/4/1 13/6/1
f 5/8/1 16/14/1 12/12/1
f 15/1/1 11/3/1 12/12/1
