# Blender v3.1.2 OBJ File: 'Casa2.blend'
# www.blender.org
o Casa_Techo_Plano.006
v 0.000000 2.004369 0.029999
v 4.000000 2.004369 0.029999
v -0.000001 2.004369 -6.030000
v 4.000000 2.004369 -6.030000
v -0.000001 1.804371 -6.030000
v 0.000000 1.804371 0.029999
v 4.000000 1.804371 0.029999
v 4.000000 1.804371 -6.030000
v -0.000001 2.004369 -5.880000
v 0.000000 2.004369 -0.120000
v 4.000001 2.004369 -0.119999
v 4.000000 2.004369 -5.879999
v -0.000001 1.804371 -5.880000
v 0.000000 1.804371 -0.120000
v 4.000001 1.804371 -0.119999
v 4.000000 1.804371 -5.879999
v 0.150001 2.004369 0.029999
v 3.850001 2.004369 0.029999
v 3.849999 2.004369 -6.030000
v 0.150000 2.004369 -6.030000
v 0.150001 1.804371 0.029999
v 3.850001 1.804371 0.029999
v 3.849999 1.804371 -6.030000
v 0.150000 1.804371 -6.030000
v 2.000415 3.017069 0.029999
v 2.000415 3.017070 -6.030000
v 4.000000 2.004369 -1.182001
v 4.000000 2.004369 -2.394001
v 4.000000 2.004369 -3.606000
v 4.000000 2.004369 -4.818000
v -0.000000 2.004369 -4.818000
v -0.000000 2.004369 -3.606000
v 0.000000 2.004369 -2.394000
v 0.000000 2.004369 -1.182001
v 2.000415 3.017070 -1.182001
v 2.000415 3.017070 -2.394001
v 2.000415 3.017070 -3.606000
v 2.000415 3.017070 -4.818000
v 2.666943 2.679502 0.029999
v 3.333471 2.341936 0.029999
v 3.333472 2.341936 -6.030000
v 2.666943 2.679503 -6.030000
v 3.333471 2.341936 -1.182001
v 2.666943 2.679503 -1.182001
v 3.333471 2.341936 -2.394001
v 2.666943 2.679503 -2.394001
v 3.333472 2.341936 -3.606000
v 2.666943 2.679503 -3.606000
v 3.333472 2.341936 -4.818000
v 2.666943 2.679503 -4.818000
v 1.333610 2.679503 -6.030000
v 0.666804 2.341936 -6.030000
v 0.666805 2.341936 0.029999
v 1.333610 2.679502 0.029999
v 1.333610 2.679503 -1.182001
v 0.666805 2.341936 -1.182001
v 1.333610 2.679503 -2.394001
v 0.666805 2.341936 -2.394001
v 1.333610 2.679503 -3.606000
v 0.666805 2.341936 -3.606000
v 1.333610 2.679503 -4.818000
v 0.666805 2.341936 -4.818000
vt 0.340631 0.342743
vt 0.353424 0.308544
vt 0.353424 0.342743
vt 0.000000 0.685487
vt 0.008405 0.651287
vt 0.008405 0.685487
vt 0.583916 0.682301
vt 0.559542 0.673896
vt 0.583924 0.673896
vt 0.000000 0.342743
vt 0.012784 0.308544
vt 0.012784 0.342743
vt 0.583916 0.351148
vt 0.559542 0.342744
vt 0.583924 0.342743
vt 0.559533 0.351149
vt 0.331152 0.685487
vt 0.339557 0.651288
vt 0.339557 0.685487
vt 0.331152 0.651288
vt 0.327876 0.342743
vt 0.340631 0.308544
vt 0.340631 0.342743
vt 0.327876 0.308544
vt 0.668516 0.342743
vt 0.681263 0.308544
vt 0.681263 0.342743
vt 0.668516 0.308544
vt 0.664907 0.410655
vt 0.583950 0.342744
vt 0.664910 0.342743
vt 1.000000 0.614389
vt 0.942277 0.682368
vt 0.942277 0.614457
vt 0.664871 0.922515
vt 0.826764 0.682301
vt 0.826764 0.763269
vt 0.762212 0.240209
vt 0.924109 0.080967
vt 0.924109 0.161933
vt 1.000000 0.342743
vt 0.942277 0.410723
vt 0.942276 0.342811
vt 1.000000 0.410655
vt 0.942277 0.478634
vt 1.000000 0.478566
vt 0.942277 0.546545
vt 0.583924 0.682301
vt 0.664896 0.614389
vt 0.664893 0.682301
vt 0.583930 0.614389
vt 0.664900 0.546478
vt 0.583935 0.546478
vt 0.664903 0.478566
vt 0.583940 0.478566
vt 0.745866 0.478566
vt 0.826830 0.410655
vt 0.826830 0.478566
vt 0.745868 0.410655
vt 0.745865 0.546478
vt 0.826830 0.546478
vt 0.826830 0.614389
vt 0.745863 0.614389
vt 0.745861 0.682301
vt 0.826830 0.682301
vt 0.826830 0.342743
vt 0.745870 0.342743
vt 0.884553 0.546613
vt 0.826830 0.614592
vt 0.826830 0.546681
vt 0.884553 0.614525
vt 0.884553 0.478702
vt 0.826830 0.478770
vt 0.884553 0.410790
vt 0.826830 0.410858
vt 0.884553 0.342879
vt 0.826830 0.342947
vt 0.826830 0.682504
vt 0.884553 0.682436
vt 0.340631 0.308544
vt 0.000000 0.651287
vt 0.559533 0.682301
vt 0.000000 0.308544
vt 0.583945 0.410655
vt 1.000000 0.682300
vt 0.826764 0.844238
vt 0.826764 0.925206
vt 0.745818 0.923861
vt 0.583924 0.921170
vt 0.924109 0.242900
vt 0.843160 0.241554
vt 0.681263 0.238863
vt 0.924109 0.000000
vt 1.000000 0.546478
vn 0.0000 0.0000 -1.0000
vn -1.0000 0.0000 0.0000
vn 1.0000 0.0000 -0.0000
vn 0.0000 0.0000 1.0000
vn 0.4518 0.8921 0.0000
vn -0.4517 0.8922 0.0000
s off
f 2/1/1 22/2/1 18/3/1
f 4/4/2 16/5/2 12/6/2
f 1/7/3 14/8/3 10/9/3
f 3/10/4 24/11/4 20/12/4
f 9/13/3 5/14/3 3/15/3
f 10/9/3 13/16/3 9/13/3
f 11/17/2 7/18/2 2/19/2
f 12/6/2 15/20/2 11/17/2
f 19/21/4 8/22/4 4/23/4
f 20/12/4 23/24/4 19/21/4
f 17/25/1 6/26/1 1/27/1
f 18/3/1 21/28/1 17/25/1
f 49/29/5 4/30/5 41/31/5
f 38/32/6 51/33/6 61/34/6
f 53/35/4 2/36/4 40/37/4
f 41/38/1 52/39/1 51/40/1
f 25/41/6 55/42/6 54/43/6
f 35/44/6 57/45/6 55/42/6
f 36/46/6 59/47/6 57/45/6
f 59/47/6 38/32/6 61/34/6
f 2/48/5 43/49/5 40/50/5
f 27/51/5 45/52/5 43/49/5
f 28/53/5 47/54/5 45/52/5
f 29/55/5 49/29/5 47/54/5
f 48/56/5 38/57/5 37/58/5
f 47/54/5 50/59/5 48/56/5
f 46/60/5 37/58/5 36/61/5
f 45/52/5 48/56/5 46/60/5
f 35/62/5 46/60/5 36/61/5
f 43/49/5 46/60/5 44/63/5
f 39/64/5 35/62/5 25/65/5
f 39/64/5 43/49/5 44/63/5
f 50/59/5 26/66/5 38/57/5
f 49/29/5 42/67/5 50/59/5
f 60/68/6 31/69/6 32/70/6
f 59/47/6 62/71/6 60/68/6
f 58/72/6 32/70/6 33/73/6
f 57/45/6 60/68/6 58/72/6
f 56/74/6 33/73/6 34/75/6
f 55/42/6 58/72/6 56/74/6
f 53/76/6 34/75/6 1/77/6
f 54/43/6 56/74/6 53/76/6
f 62/71/6 3/78/6 31/69/6
f 61/34/6 52/79/6 62/71/6
f 2/1/1 7/80/1 22/2/1
f 4/4/2 8/81/2 16/5/2
f 1/7/3 6/82/3 14/8/3
f 3/10/4 5/83/4 24/11/4
f 9/13/3 13/16/3 5/14/3
f 10/9/3 14/8/3 13/16/3
f 11/17/2 15/20/2 7/18/2
f 12/6/2 16/5/2 15/20/2
f 19/21/4 23/24/4 8/22/4
f 20/12/4 24/11/4 23/24/4
f 17/25/1 21/28/1 6/26/1
f 18/3/1 22/2/1 21/28/1
f 49/29/5 30/84/5 4/30/5
f 38/32/6 26/85/6 51/33/6
f 39/86/4 25/87/4 54/88/4
f 53/35/4 1/89/4 2/36/4
f 39/86/4 54/88/4 40/37/4
f 54/88/4 53/35/4 40/37/4
f 51/40/1 26/90/1 42/91/1
f 41/38/1 4/92/1 52/39/1
f 4/92/1 3/93/1 52/39/1
f 51/40/1 42/91/1 41/38/1
f 25/41/6 35/44/6 55/42/6
f 35/44/6 36/46/6 57/45/6
f 36/46/6 37/94/6 59/47/6
f 59/47/6 37/94/6 38/32/6
f 2/48/5 27/51/5 43/49/5
f 27/51/5 28/53/5 45/52/5
f 28/53/5 29/55/5 47/54/5
f 29/55/5 30/84/5 49/29/5
f 48/56/5 50/59/5 38/57/5
f 47/54/5 49/29/5 50/59/5
f 46/60/5 48/56/5 37/58/5
f 45/52/5 47/54/5 48/56/5
f 35/62/5 44/63/5 46/60/5
f 43/49/5 45/52/5 46/60/5
f 39/64/5 44/63/5 35/62/5
f 39/64/5 40/50/5 43/49/5
f 50/59/5 42/67/5 26/66/5
f 49/29/5 41/31/5 42/67/5
f 60/68/6 62/71/6 31/69/6
f 59/47/6 61/34/6 62/71/6
f 58/72/6 60/68/6 32/70/6
f 57/45/6 59/47/6 60/68/6
f 56/74/6 58/72/6 33/73/6
f 55/42/6 57/45/6 58/72/6
f 53/76/6 56/74/6 34/75/6
f 54/43/6 55/42/6 56/74/6
f 62/71/6 52/79/6 3/78/6
f 61/34/6 51/33/6 52/79/6
